<svg xmlns="http://www.w3.org/2000/svg" viewBox="0 0 520 520" role="img" aria-labelledby="title desc">
  <title id="title">EB Digital Studio — silver</title>
  <desc id="desc">Temaya uyumlu geometrik E ve B monogram logo.</desc>
  <defs>
    <linearGradient id="g" x1="0" y1="0" x2="1" y2="1">
      <stop offset="0" stop-color="#f8fafc"/>
      <stop offset=".48" stop-color="#cbd5e1"/>
      <stop offset="1" stop-color="#64748b"/>
    </linearGradient>
    <filter id="glow" x="-30%" y="-30%" width="160%" height="160%">
      <feGaussianBlur stdDeviation="9" result="blur"/>
      <feMerge><feMergeNode in="blur"/><feMergeNode in="SourceGraphic"/></feMerge>
    </filter>
  </defs>
  <rect x="26" y="26" width="468" height="468" rx="112" fill="#060914" stroke="#ffffff" stroke-opacity=".08" stroke-width="3"/>
  <path fill="url(#g)" filter="url(#glow)" d="M82 74h268l-42 56H149v86h164l-40 53H149v120h158l-46 59H82z"/>
  <path fill="url(#g)" filter="url(#glow)" opacity=".96" d="M228 74h105c80 0 124 38 124 100 0 43-21 73-59 88 46 15 73 48 73 98 0 70-51 108-141 108H190l52-61h88c43 0 65-16 65-46 0-29-22-44-65-44h-87l48-58h38c39 0 59-14 59-43 0-28-20-43-60-43h-54z"/>
  <path d="M370 54 166 466" stroke="#ffffff" stroke-opacity=".84" stroke-width="12" stroke-linecap="round"/>
</svg>
